<svg width="20" height="21" viewBox="0 0 20 21" fill="none" xmlns="http://www.w3.org/2000/svg">
<path d="M19.9685 9.7424C19.9151 9.60476 19.8017 9.49962 19.6607 9.45756L17.1385 8.69673V7.14066C17.1385 6.96001 17.0366 6.79466 16.8755 6.71341C16.7155 6.63217 16.5211 6.65033 16.3762 6.75834L13.4624 8.95098L14.2762 2.4218C14.2962 2.25358 14.2285 2.08822 14.0961 1.98499C13.9636 1.88176 13.7854 1.85787 13.6301 1.91713L11.8902 2.60245L10.3762 0.207173C10.2027 -0.0690577 9.74537 -0.0690577 9.57195 0.207173L8.05882 2.59958L6.35799 1.91808C6.20362 1.855 6.02353 1.87985 5.88918 1.98308C5.75578 2.08535 5.68623 2.25262 5.70814 2.42084L6.52188 8.95002L3.60806 6.75834C3.46323 6.65033 3.26885 6.63217 3.10877 6.71341C2.94774 6.79466 2.84578 6.96001 2.84578 7.14066V8.69673L0.339788 9.448C0.200672 9.49006 0.0872832 9.59424 0.0339236 9.72997C-0.0203888 9.86665 -0.00895465 10.0196 0.0644148 10.1467L1.32789 12.3355L0.27023 13.2646C0.140643 13.3774 0.0825189 13.5532 0.117774 13.7224C0.15303 13.8916 0.275947 14.0273 0.44079 14.0799L5.71195 15.7516L5.70433 17.6527C5.70338 17.8219 5.79199 17.9777 5.93587 18.0647C6.01115 18.1106 6.09595 18.1326 6.18076 18.1326C6.25889 18.1326 6.33702 18.1125 6.40753 18.0742L9.36804 16.4675C9.23083 17.8487 8.99547 19.2509 8.59146 20.3577C8.50094 20.6062 8.62767 20.8805 8.87541 20.9713C8.92973 20.9904 8.98499 21 9.0393 21C9.23368 21 9.41663 20.8796 9.48714 20.6865C10.662 17.4644 10.5172 12.1568 10.4752 11.1216C10.4733 11.0366 10.4714 10.9869 10.4714 10.9821C10.4619 10.7183 10.6677 10.4965 10.9298 10.486C10.9364 10.486 10.9421 10.486 10.9479 10.486C11.2032 10.486 11.4148 10.6887 11.4243 10.9458C11.431 11.1178 11.5262 13.9461 11.2194 16.8384L13.5825 18.0771C13.7292 18.1545 13.9055 18.1478 14.0494 18.0618C14.1914 17.9758 14.2781 17.821 14.279 17.6546L14.2857 15.7487L19.5111 14.077C19.675 14.0245 19.7979 13.8878 19.8322 13.7186C19.8675 13.5494 19.8094 13.3755 19.6798 13.2617L18.6269 12.3374L19.9313 10.1591C20.0076 10.0339 20.0209 9.88003 19.9685 9.7424Z" fill="#929292"/>
</svg>
