<svg width="24" height="24" viewBox="0 0 24 24" fill="none" xmlns="http://www.w3.org/2000/svg">
<path d="M0.664433 0C0.569616 0.000281904 0.475951 0.0207919 0.389694 0.0601604C0.303438 0.0995288 0.226576 0.156849 0.164243 0.228292C0.101911 0.299735 0.0555418 0.383656 0.0282349 0.474449C0.00092792 0.565241 -0.00668859 0.660815 0.005894 0.754786V7.33704C0.00464523 7.42534 0.0209583 7.513 0.053885 7.59493C0.0868117 7.67686 0.135695 7.75143 0.197695 7.81431C0.259695 7.87719 0.333575 7.92712 0.415041 7.9612C0.496506 7.99528 0.583934 8.01283 0.672241 8.01283C0.760549 8.01283 0.847976 7.99528 0.929442 7.9612C1.01091 7.92712 1.08479 7.87719 1.14679 7.81431C1.20879 7.75143 1.25767 7.67686 1.2906 7.59493C1.32352 7.513 1.33984 7.42534 1.33859 7.33704V2.28258L8.19728 9.14072C8.25868 9.20467 8.33223 9.25572 8.41361 9.29089C8.49499 9.32606 8.58256 9.34464 8.67122 9.34554C8.75987 9.34644 8.84781 9.32965 8.92989 9.29614C9.01196 9.26263 9.08653 9.21309 9.14922 9.1504C9.21191 9.08772 9.26146 9.01316 9.29497 8.93109C9.32848 8.84902 9.34527 8.76108 9.34437 8.67244C9.34347 8.58379 9.32489 8.49622 9.28972 8.41485C9.25455 8.33348 9.20349 8.25994 9.13954 8.19854L2.28085 1.3404H7.33571C7.42401 1.34165 7.51168 1.32533 7.59362 1.29241C7.67556 1.25949 7.75014 1.21061 7.81302 1.14861C7.8759 1.08662 7.92584 1.01274 7.95992 0.931282C7.994 0.849823 8.01155 0.762403 8.01155 0.674102C8.01155 0.585802 7.994 0.498381 7.95992 0.416922C7.92584 0.335463 7.8759 0.261589 7.81302 0.199594C7.75014 0.137599 7.67556 0.0887194 7.59362 0.0557953C7.51168 0.0228712 7.42401 0.00655947 7.33571 0.00780813H0.752932C0.723639 0.00323989 0.694073 0.000631408 0.664433 0ZM23.315 0.00260271C23.2924 0.00318724 23.2698 0.00492467 23.2474 0.00780813H16.6646C16.5763 0.00655947 16.4886 0.0228712 16.4067 0.0557953C16.3247 0.0887194 16.2502 0.137599 16.1873 0.199594C16.1244 0.261589 16.0745 0.335463 16.0404 0.416922C16.0063 0.498381 15.9887 0.585802 15.9887 0.674102C15.9887 0.762403 16.0063 0.849823 16.0404 0.931282C16.0745 1.01274 16.1244 1.08662 16.1873 1.14861C16.2502 1.21061 16.3247 1.25949 16.4067 1.29241C16.4886 1.32533 16.5763 1.34165 16.6646 1.3404H21.7194L14.8608 8.19854C14.7968 8.25994 14.7458 8.33348 14.7106 8.41485C14.6754 8.49622 14.6568 8.58379 14.6559 8.67244C14.655 8.76108 14.6718 8.84901 14.7053 8.93108C14.7388 9.01315 14.7884 9.08771 14.8511 9.15039C14.9138 9.21307 14.9883 9.26262 15.0704 9.29613C15.1525 9.32963 15.2404 9.34643 15.3291 9.34553C15.4177 9.34463 15.5053 9.32605 15.5867 9.29088C15.6681 9.25572 15.7416 9.20467 15.803 9.14072L22.6617 2.28258V7.33704C22.6605 7.42534 22.6768 7.513 22.7097 7.59493C22.7426 7.67686 22.7915 7.75143 22.8535 7.81431C22.9155 7.87719 22.9894 7.92712 23.0709 7.9612C23.1523 7.99528 23.2397 8.01283 23.3281 8.01283C23.4164 8.01283 23.5038 7.99528 23.5853 7.9612C23.6667 7.92712 23.7406 7.87719 23.8026 7.81431C23.8646 7.75143 23.9135 7.67686 23.9464 7.59493C23.9793 7.513 23.9956 7.42534 23.9944 7.33704V0.754786C24.0068 0.659254 23.9984 0.56216 23.9697 0.470195C23.941 0.378229 23.8927 0.293581 23.8281 0.222084C23.7636 0.150586 23.6843 0.0939397 23.5957 0.0560488C23.5071 0.018158 23.4113 -7.63776e-05 23.315 0.00260271ZM15.3241 14.6585C15.1914 14.6585 15.0617 14.6982 14.9516 14.7723C14.8416 14.8465 14.7562 14.9519 14.7064 15.0749C14.6567 15.198 14.6448 15.333 14.6723 15.4629C14.6997 15.5927 14.7654 15.7114 14.8608 15.8037L21.7194 22.6618H16.6646C16.5763 22.6606 16.4886 22.6769 16.4067 22.7098C16.3247 22.7427 16.2502 22.7916 16.1873 22.8536C16.1244 22.9156 16.0745 22.9895 16.0404 23.0709C16.0063 23.1524 15.9887 23.2398 15.9887 23.3281C15.9887 23.4164 16.0063 23.5038 16.0404 23.5853C16.0745 23.6667 16.1244 23.7406 16.1873 23.8026C16.2502 23.8646 16.3247 23.9135 16.4067 23.9464C16.4886 23.9793 16.5763 23.9956 16.6646 23.9944H23.2474C23.3486 24.0076 23.4515 23.9974 23.5482 23.9645C23.6448 23.9316 23.7326 23.877 23.8048 23.8048C23.877 23.7326 23.9316 23.6448 23.9645 23.5482C23.9974 23.4515 24.0076 23.3486 23.9944 23.2474V16.6652C23.9956 16.5769 23.9793 16.4892 23.9464 16.4073C23.9135 16.3253 23.8646 16.2508 23.8026 16.1879C23.7406 16.125 23.6667 16.0751 23.5853 16.041C23.5038 16.0069 23.4164 15.9894 23.3281 15.9894C23.2397 15.9894 23.1523 16.0069 23.0709 16.041C22.9894 16.0751 22.9155 16.125 22.8535 16.1879C22.7915 16.2508 22.7426 16.3253 22.7097 16.4073C22.6768 16.4892 22.6605 16.5769 22.6617 16.6652V21.7196L15.803 14.8615C15.7409 14.7973 15.6664 14.7462 15.5842 14.7113C15.5019 14.6764 15.4134 14.6585 15.3241 14.6585ZM8.65539 14.6611C8.48246 14.6659 8.31818 14.7378 8.19728 14.8615L1.33859 21.7196V16.6652C1.33984 16.5769 1.32352 16.4892 1.2906 16.4073C1.25767 16.3253 1.20879 16.2508 1.14679 16.1879C1.08479 16.125 1.01091 16.0751 0.929442 16.041C0.847976 16.0069 0.760549 15.9894 0.672241 15.9894C0.583934 15.9894 0.496506 16.0069 0.415041 16.041C0.333575 16.0751 0.259695 16.125 0.197695 16.1879C0.135695 16.2508 0.0868117 16.3253 0.053885 16.4073C0.0209583 16.4892 0.00464523 16.5769 0.005894 16.6652V23.2474C-0.00731526 23.3486 0.00291043 23.4515 0.0357818 23.5482C0.0686532 23.6448 0.123292 23.7326 0.19548 23.8048C0.267669 23.877 0.355478 23.9316 0.452132 23.9645C0.548786 23.9974 0.6517 24.0076 0.752932 23.9944H7.33571C7.42401 23.9956 7.51168 23.9793 7.59362 23.9464C7.67556 23.9135 7.75014 23.8646 7.81302 23.8026C7.8759 23.7406 7.92584 23.6667 7.95992 23.5853C7.994 23.5038 8.01155 23.4164 8.01155 23.3281C8.01155 23.2398 7.994 23.1524 7.95992 23.0709C7.92584 22.9895 7.8759 22.9156 7.81302 22.8536C7.75014 22.7916 7.67556 22.7427 7.59362 22.7098C7.51168 22.6769 7.42401 22.6606 7.33571 22.6618H2.28085L9.13954 15.8037C9.23536 15.71 9.30071 15.5896 9.32706 15.4582C9.35342 15.3269 9.33955 15.1906 9.28727 15.0672C9.235 14.9439 9.14674 14.8391 9.03402 14.7666C8.92129 14.6942 8.78935 14.6574 8.65539 14.6611Z" fill="currentColor"/>
</svg>
