<svg width="20" height="20" viewBox="0 0 20 20" fill="none" xmlns="http://www.w3.org/2000/svg">
<path d="M19.0596 11.6747L15.8642 12.5347L13.275 11.0328C12.4827 10.5738 12.4827 9.42492 13.275 8.96597L15.8642 7.4641L19.0596 8.32402C19.1243 8.34102 19.189 8.34902 19.2537 8.34902C19.5832 8.34902 19.8848 8.12804 19.9744 7.79307C20.0809 7.3931 19.845 6.98114 19.4468 6.87415L18.0462 6.49718C17.2887 6.2932 16.8388 5.51127 17.0418 4.74933L17.4171 3.34246C17.5236 2.94249 17.2877 2.53053 16.8895 2.42354C16.4923 2.32055 16.0822 2.55353 15.9747 2.95349L15.1186 6.16321L12.5284 7.66808C11.7361 8.12704 10.7466 7.55309 10.7466 6.63517V3.63043L13.0859 1.28064C13.3776 0.987664 13.3776 0.512705 13.0859 0.219731C12.7942 -0.0732436 12.3214 -0.0732436 12.0297 0.219731L11.0044 1.24964C10.4499 1.80659 9.55005 1.80659 8.99559 1.24964L7.97027 0.219731C7.67861 -0.0732436 7.20576 -0.0732436 6.9141 0.219731C6.62243 0.512705 6.62243 0.987664 6.9141 1.28064L9.25341 3.63043V6.63417C9.25341 7.55309 8.26393 8.12704 7.47155 7.66708L4.88238 6.16621L4.02629 2.95649C3.91978 2.55653 3.51065 2.32255 3.11147 2.42654C2.71329 2.53353 2.47737 2.94549 2.58388 3.34546L2.95917 4.75233C3.16124 5.51227 2.7123 6.2952 1.95376 6.49918L0.553161 6.87515C0.15498 6.98214 -0.0809423 7.3941 0.0255711 7.79407C0.115162 8.12904 0.416784 8.35002 0.746278 8.35002C0.809987 8.35002 0.874691 8.34202 0.940391 8.32502L4.13579 7.4651L6.72496 8.96697C7.51734 9.42593 7.51734 10.5748 6.72496 11.0338L4.13579 12.5357L0.940391 11.6757C0.543206 11.5727 0.132084 11.8057 0.0255711 12.2057C-0.0809423 12.6056 0.15498 13.0176 0.553161 13.1246L1.95376 13.5016C2.7113 13.7056 3.16124 14.4875 2.95817 15.2494L2.58289 16.6563C2.47637 17.0563 2.7123 17.4682 3.11048 17.5752C3.17618 17.5912 3.24088 17.5992 3.30459 17.5992C3.63408 17.5992 3.93571 17.3782 4.0253 17.0433L4.88138 13.8335L7.47055 12.3317C8.26293 11.8727 9.25241 12.4467 9.25241 13.3646V16.3683L6.9141 18.7191C6.62243 19.0121 6.62243 19.487 6.9141 19.78C7.20576 20.073 7.67861 20.073 7.97027 19.78L8.99559 18.7501C9.55005 18.1932 10.4499 18.1932 11.0044 18.7501L12.0297 19.78C12.1751 19.926 12.3662 20 12.5573 20C12.7484 20 12.9396 19.927 13.0849 19.78C13.3766 19.487 13.3766 19.0121 13.0849 18.7191L10.7456 16.3693V13.3656C10.7456 12.4467 11.7351 11.8727 12.5274 12.3327L15.1166 13.8345L15.9727 17.0443C16.0623 17.3792 16.3639 17.6002 16.6934 17.6002C16.7571 17.6002 16.8218 17.5922 16.8875 17.5752C17.2857 17.4682 17.5216 17.0563 17.4151 16.6563L17.0398 15.2494C16.8368 14.4885 17.2867 13.7056 18.0442 13.5016L19.4448 13.1246C19.843 13.0176 20.0789 12.6056 19.9724 12.2057C19.8659 11.8057 19.4608 11.5707 19.0596 11.6747Z" fill="#929292"/>
</svg>
