<svg width="16" height="16" viewBox="0 0 16 16" fill="none" xmlns="http://www.w3.org/2000/svg">
<path d="M4.44444 0C1.99378 0 0 1.99378 0 4.44444V11.5556C0 14.0062 1.99378 16 4.44444 16H11.5556C14.0062 16 16 14.0062 16 11.5556V4.44444C16 1.99378 14.0062 0 11.5556 0H4.44444ZM12.8889 2.66667C13.1342 2.66667 13.3333 2.86578 13.3333 3.11111C13.3333 3.35644 13.1342 3.55556 12.8889 3.55556C12.6436 3.55556 12.4444 3.35644 12.4444 3.11111C12.4444 2.86578 12.6436 2.66667 12.8889 2.66667ZM8 3.55556C10.4507 3.55556 12.4444 5.54933 12.4444 8C12.4444 10.4507 10.4507 12.4444 8 12.4444C5.54933 12.4444 3.55556 10.4507 3.55556 8C3.55556 5.54933 5.54933 3.55556 8 3.55556ZM8 4.44444C7.05701 4.44444 6.15264 4.81905 5.48584 5.48584C4.81905 6.15264 4.44444 7.05701 4.44444 8C4.44444 8.94299 4.81905 9.84736 5.48584 10.5142C6.15264 11.181 7.05701 11.5556 8 11.5556C8.94299 11.5556 9.84736 11.181 10.5142 10.5142C11.181 9.84736 11.5556 8.94299 11.5556 8C11.5556 7.05701 11.181 6.15264 10.5142 5.48584C9.84736 4.81905 8.94299 4.44444 8 4.44444Z" fill="currentColor"/>
</svg>
