<svg width="30" height="30" viewBox="0 0 30 30" fill="none" xmlns="http://www.w3.org/2000/svg">
<path d="M7.90893 0.853281C7.62088 1.14144 7.53645 1.57555 7.69548 1.95067C7.85451 2.32579 8.22523 2.56694 8.63261 2.56027L26.0175 2.56025L0.854433 27.7233C0.595815 27.9747 0.492605 28.3459 0.584317 28.6947C0.676028 29.0435 0.948449 29.3159 1.29726 29.4077C1.64608 29.4994 2.01727 29.3961 2.26866 29.1375L27.4317 3.97448V21.3594C27.4244 21.7214 27.6133 22.0592 27.9257 22.2423C28.2381 22.4255 28.6251 22.4255 28.9375 22.2423C29.2499 22.0592 29.4388 21.7214 29.4315 21.3594L29.4315 1.56036C29.4314 1.00818 28.9838 0.56058 28.4316 0.560467L8.63262 0.560468C8.36169 0.555999 8.10052 0.661684 7.90893 0.853281Z" fill="currentColor"/>
</svg>
