<svg width="21" height="20" viewBox="0 0 21 20" fill="none" xmlns="http://www.w3.org/2000/svg">
<path d="M3.98883 0C2.53774 0 1.03573 1.19194 1.03573 3.18668C1.03573 4.49931 1.7508 5.37627 2.3031 5.85732C1.6353 7.35206 0.0830408 11.4203 9.15112e-05 17.0929C-0.00515844 17.4382 0.215947 17.7483 0.543544 17.8557C0.810242 17.943 7.12323 20 10.5 20C13.8768 20 20.1898 17.943 20.4565 17.8557C20.7841 17.7483 21.0052 17.4382 20.9999 17.0929C20.917 11.4203 19.3647 7.35206 18.6969 5.85732C19.2492 5.37627 19.9643 4.49931 19.9643 3.18668C19.9643 1.19089 18.4623 0 17.0112 0C15.9748 0 15.0835 0.475757 14.5564 0.834704C13.8918 0.472599 12.6184 0 10.4774 0C8.36801 0 7.10298 0.471546 6.44359 0.834704C5.91649 0.475757 5.02517 0 3.98883 0ZM6.03754 8.42105C6.47224 8.42105 6.82503 8.77474 6.82503 9.21053C6.82503 9.64632 6.47224 10 6.03754 10C5.60284 10 5.25005 9.64632 5.25005 9.21053C5.25005 8.77474 5.60284 8.42105 6.03754 8.42105ZM9.89708 8.42105H11.1029C11.357 8.42105 11.5952 8.52763 11.7653 8.71711C12.5455 9.59079 14.7 12.3036 14.7 15.5942C14.7 15.5942 12.8793 17.8947 10.5 17.8947C8.12072 17.8947 6.30004 15.5942 6.30004 15.5942C6.30004 12.3026 8.45454 9.59079 9.23468 8.71711C9.40478 8.52763 9.64298 8.42105 9.89708 8.42105ZM14.9625 8.42105C15.3972 8.42105 15.75 8.77474 15.75 9.21053C15.75 9.64632 15.3972 10 14.9625 10C14.5278 10 14.175 9.64632 14.175 9.21053C14.175 8.77474 14.5278 8.42105 14.9625 8.42105ZM10.5 14.7368C9.48781 14.7368 8.83273 15.1748 8.83273 15.1748C9.17188 16.2926 9.75661 16.7737 10.5 16.8421C11.2434 16.7737 11.8281 16.2926 12.1673 15.1748C12.1673 15.1748 11.5122 14.7368 10.5 14.7368Z" fill="#929292"/>
</svg>
