<svg width="24" height="24" viewBox="0 0 24 24" fill="none" xmlns="http://www.w3.org/2000/svg">
<path d="M23 4.5H1V19.5H23V4.5Z" fill="#FFD600"/>
<path d="M14.8849 12.8575H9.11594C9.02994 12.8575 8.95994 12.7875 8.95994 12.7015C8.95994 12.6155 9.02994 12.5455 9.11594 12.5455H14.8854C14.9714 12.5455 15.0414 12.6155 15.0414 12.7015C15.0409 12.788 14.9709 12.8575 14.8849 12.8575ZM15.5089 12.3895H8.49194C8.40594 12.3895 8.33594 12.3195 8.33594 12.2335C8.33594 12.1475 8.40594 12.0775 8.49194 12.0775H15.5089C15.5949 12.0775 15.6649 12.1475 15.6649 12.2335C15.6649 12.32 15.5949 12.3895 15.5089 12.3895ZM15.5089 11.922H8.49194C8.40594 11.922 8.33594 11.852 8.33594 11.766C8.33594 11.68 8.40594 11.61 8.49194 11.61H15.5089C15.5949 11.61 15.6649 11.68 15.6649 11.766C15.6649 11.8525 15.5949 11.922 15.5089 11.922ZM14.8849 11.454H9.11594C9.02994 11.454 8.95994 11.384 8.95994 11.298C8.95994 11.212 9.02994 11.142 9.11594 11.142H14.8854C14.9714 11.142 15.0414 11.212 15.0414 11.298C15.0409 11.384 14.9709 11.454 14.8849 11.454Z" fill="#B71C1C"/>
<path d="M11.2988 14.8845V9.11549V14.8845ZM11.7668 15.5085V8.49149V15.5085ZM12.2348 15.5085V8.49149V15.5085ZM12.7028 14.8845V9.11549V14.8845Z" fill="#212121"/>
<path d="M12.2346 15.6645C12.1486 15.6645 12.0786 15.5945 12.0786 15.5085V8.49151C12.0786 8.40551 12.1486 8.33551 12.2346 8.33551C12.3206 8.33551 12.3906 8.40551 12.3906 8.49151V15.5085C12.3901 15.5945 12.3206 15.6645 12.2346 15.6645ZM11.7666 15.6645C11.6806 15.6645 11.6106 15.5945 11.6106 15.5085V8.49151C11.6106 8.40551 11.6806 8.33551 11.7666 8.33551C11.8526 8.33551 11.9226 8.40551 11.9226 8.49151V15.5085C11.9226 15.5945 11.8531 15.6645 11.7666 15.6645ZM12.7026 15.0405C12.6166 15.0405 12.5466 14.9705 12.5466 14.8845V9.11551C12.5466 9.02951 12.6166 8.95951 12.7026 8.95951C12.7886 8.95951 12.8586 9.02951 12.8586 9.11551V14.885C12.8581 14.9705 12.7886 15.0405 12.7026 15.0405ZM11.2986 15.0405C11.2126 15.0405 11.1426 14.9705 11.1426 14.8845V9.11551C11.1426 9.02951 11.2126 8.95951 11.2986 8.95951C11.3846 8.95951 11.4546 9.02951 11.4546 9.11551V14.885C11.4546 14.9705 11.3846 15.0405 11.2986 15.0405Z" fill="#B71C1C"/>
<path d="M11.9993 13.179C12.6505 13.179 13.1783 12.6512 13.1783 12C13.1783 11.3489 12.6505 10.821 11.9993 10.821C11.3482 10.821 10.8203 11.3489 10.8203 12C10.8203 12.6512 11.3482 13.179 11.9993 13.179Z" fill="#FFD600"/>
<path d="M11.9992 13.2765C11.2952 13.2765 10.7227 12.704 10.7227 12C10.7227 11.296 11.2952 10.7235 11.9992 10.7235C12.7032 10.7235 13.2757 11.296 13.2757 12C13.2757 12.704 12.7032 13.2765 11.9992 13.2765ZM11.9992 10.9185C11.4027 10.9185 10.9177 11.4035 10.9177 12C10.9177 12.5965 11.4027 13.0815 11.9992 13.0815C12.5957 13.0815 13.0807 12.5965 13.0807 12C13.0807 11.4035 12.5957 10.9185 11.9992 10.9185Z" fill="#B71C1C"/>
</svg>
