<svg width="25" height="25" viewBox="0 0 25 25" fill="none" xmlns="http://www.w3.org/2000/svg">
<path d="M8 23H17C20.3135 23 23 20.3135 23 17V8C23 4.6865 20.3135 2 17 2H8C4.6865 2 2 4.6865 2 8V17C2 20.3135 4.6865 23 8 23Z" stroke="currentColor" stroke-width="2" stroke-miterlimit="10"/>
<path d="M12.5 17.5C15.2614 17.5 17.5 15.2614 17.5 12.5C17.5 9.73858 15.2614 7.5 12.5 7.5C9.73858 7.5 7.5 9.73858 7.5 12.5C7.5 15.2614 9.73858 17.5 12.5 17.5Z" stroke="currentColor" stroke-width="2" stroke-miterlimit="10"/>
<path d="M18.5 7.5C19.0523 7.5 19.5 7.05228 19.5 6.5C19.5 5.94772 19.0523 5.5 18.5 5.5C17.9477 5.5 17.5 5.94772 17.5 6.5C17.5 7.05228 17.9477 7.5 18.5 7.5Z" fill="currentColor"/>
</svg>