<svg width="18" height="18" viewBox="0 0 18 18" fill="none" xmlns="http://www.w3.org/2000/svg">
<path d="M17.5755 16.721L10.6665 7.15499L15.8855 0.817992C16.0615 0.604992 16.0315 0.289992 15.8175 0.113992C15.6035 -0.0630078 15.2885 -0.032008 15.1135 0.181992L10.0615 6.31699L6.05654 0.770992C5.70654 0.286992 5.14554 -7.89703e-06 4.54854 -7.89703e-06H1.07754C0.41954 -7.89703e-06 0.0385402 0.745992 0.42354 1.27899L6.86554 10.198L1.11454 17.182C0.93854 17.395 0.96854 17.71 1.18254 17.886C1.27454 17.963 1.38754 18 1.49954 18C1.64454 18 1.78754 17.938 1.88554 17.818L7.47054 11.036L11.9435 17.229C12.2935 17.713 12.8535 18 13.4505 18H16.9215C17.5795 18 17.9605 17.254 17.5755 16.721Z" fill="black"/>
</svg>
