<svg width="18" height="17" viewBox="0 0 18 17" fill="none" xmlns="http://www.w3.org/2000/svg">
<path d="M5.49247 -0.00787336C5.42681 -0.00684885 5.36199 0.00709903 5.30172 0.0331737C5.24145 0.0592484 5.18691 0.0969394 5.1412 0.144094C5.0955 0.191249 5.05953 0.246945 5.03535 0.308001C5.01117 0.369057 4.99926 0.434278 5.00029 0.499939V1.41986C4.99147 1.47354 4.99147 1.52829 5.00029 1.58197V2.49994C4.99935 2.5662 5.01159 2.63198 5.0363 2.69346C5.061 2.75494 5.09768 2.81091 5.14421 2.85809C5.19073 2.90527 5.24616 2.94274 5.30729 2.96832C5.36842 2.99389 5.43402 3.00706 5.50029 3.00706C5.56655 3.00706 5.63215 2.99389 5.69328 2.96832C5.75441 2.94274 5.80984 2.90527 5.85637 2.85809C5.90289 2.81091 5.93957 2.75494 5.96427 2.69346C5.98898 2.63198 6.00122 2.5662 6.00029 2.49994V1.99994H17.5003C17.5665 2.00088 17.6323 1.98864 17.6938 1.96393C17.7553 1.93922 17.8113 1.90254 17.8584 1.85602C17.9056 1.8095 17.9431 1.75406 17.9687 1.69293C17.9942 1.6318 18.0074 1.5662 18.0074 1.49994C18.0074 1.43368 17.9942 1.36807 17.9687 1.30695C17.9431 1.24582 17.9056 1.19038 17.8584 1.14386C17.8113 1.09734 17.7553 1.06066 17.6938 1.03595C17.6323 1.01124 17.5665 0.999002 17.5003 0.999939H6.00029V0.499939C6.00133 0.432963 5.98891 0.366459 5.96377 0.304375C5.93862 0.24229 5.90125 0.185892 5.85388 0.138527C5.80652 0.0911615 5.75012 0.0537955 5.68804 0.0286466C5.62595 0.00349775 5.55945 -0.00892139 5.49247 -0.00787336ZM0.500285 0.999939C0.434029 0.999002 0.368248 1.01124 0.306764 1.03595C0.24528 1.06066 0.189319 1.09734 0.142134 1.14386C0.0949496 1.19038 0.0574814 1.24582 0.0319076 1.30695C0.0063337 1.36807 -0.00683594 1.43368 -0.00683594 1.49994C-0.00683594 1.5662 0.0063337 1.6318 0.0319076 1.69293C0.0574814 1.75406 0.0949496 1.8095 0.142134 1.85602C0.189319 1.90254 0.24528 1.93922 0.306764 1.96393C0.368248 1.98864 0.434029 2.00088 0.500285 1.99994H3.50029C3.56654 2.00088 3.63232 1.98864 3.69381 1.96393C3.75529 1.93922 3.81125 1.90254 3.85844 1.85602C3.90562 1.8095 3.94309 1.75406 3.96866 1.69293C3.99424 1.6318 4.00741 1.5662 4.00741 1.49994C4.00741 1.43368 3.99424 1.36807 3.96866 1.30695C3.94309 1.24582 3.90562 1.19038 3.85844 1.14386C3.81125 1.09734 3.75529 1.06066 3.69381 1.03595C3.63232 1.01124 3.56654 0.999002 3.50029 0.999939H0.500285ZM13.4925 6.99213C13.4268 6.99315 13.362 7.0071 13.3017 7.03317C13.2415 7.05925 13.1869 7.09694 13.1412 7.14409C13.0955 7.19125 13.0595 7.24694 13.0354 7.308C13.0112 7.36906 12.9993 7.43428 13.0003 7.49994V8.41986C12.9915 8.47354 12.9915 8.52829 13.0003 8.58197V9.49994C12.9993 9.56619 13.0116 9.63198 13.0363 9.69346C13.061 9.75494 13.0977 9.81091 13.1442 9.85809C13.1907 9.90528 13.2462 9.94274 13.3073 9.96832C13.3684 9.99389 13.434 10.0071 13.5003 10.0071C13.5665 10.0071 13.6321 9.99389 13.6933 9.96832C13.7544 9.94274 13.8098 9.90528 13.8564 9.85809C13.9029 9.81091 13.9396 9.75494 13.9643 9.69346C13.989 9.63198 14.0012 9.56619 14.0003 9.49994V8.99994H17.5003C17.5665 9.00088 17.6323 8.98864 17.6938 8.96393C17.7553 8.93922 17.8113 8.90254 17.8584 8.85602C17.9056 8.8095 17.9431 8.75406 17.9687 8.69293C17.9942 8.6318 18.0074 8.5662 18.0074 8.49994C18.0074 8.43368 17.9942 8.36807 17.9687 8.30695C17.9431 8.24582 17.9056 8.19038 17.8584 8.14386C17.8113 8.09734 17.7553 8.06066 17.6938 8.03595C17.6323 8.01124 17.5665 7.999 17.5003 7.99994H14.0003V7.49994C14.0013 7.43296 13.9889 7.36646 13.9638 7.30437C13.9386 7.24229 13.9012 7.18589 13.8539 7.13853C13.8065 7.09116 13.7501 7.0538 13.688 7.02865C13.626 7.0035 13.5594 6.99108 13.4925 6.99213ZM0.500285 7.99994C0.434029 7.999 0.368248 8.01124 0.306764 8.03595C0.24528 8.06066 0.189319 8.09734 0.142134 8.14386C0.0949496 8.19038 0.0574814 8.24582 0.0319076 8.30695C0.0063337 8.36807 -0.00683594 8.43368 -0.00683594 8.49994C-0.00683594 8.5662 0.0063337 8.6318 0.0319076 8.69293C0.0574814 8.75406 0.0949496 8.8095 0.142134 8.85602C0.189319 8.90254 0.24528 8.93922 0.306764 8.96393C0.368248 8.98864 0.434029 9.00088 0.500285 8.99994H11.5003C11.5665 9.00088 11.6323 8.98864 11.6938 8.96393C11.7553 8.93922 11.8113 8.90254 11.8584 8.85602C11.9056 8.8095 11.9431 8.75406 11.9687 8.69293C11.9942 8.6318 12.0074 8.5662 12.0074 8.49994C12.0074 8.43368 11.9942 8.36807 11.9687 8.30695C11.9431 8.24582 11.9056 8.19038 11.8584 8.14386C11.8113 8.09734 11.7553 8.06066 11.6938 8.03595C11.6323 8.01124 11.5665 7.999 11.5003 7.99994H0.500285ZM9.49247 13.9921C9.42681 13.9932 9.362 14.0071 9.30172 14.0332C9.24145 14.0592 9.18691 14.0969 9.1412 14.1441C9.0955 14.1912 9.05953 14.2469 9.03535 14.308C9.01117 14.3691 8.99926 14.4343 9.00029 14.4999V15.4199C8.99147 15.4735 8.99147 15.5283 9.00029 15.582V16.4999C8.99935 16.5662 9.01159 16.632 9.0363 16.6935C9.061 16.7549 9.09768 16.8109 9.14421 16.8581C9.19073 16.9053 9.24616 16.9427 9.30729 16.9683C9.36842 16.9939 9.43402 17.0071 9.50029 17.0071C9.56655 17.0071 9.63215 16.9939 9.69328 16.9683C9.75441 16.9427 9.80984 16.9053 9.85637 16.8581C9.90289 16.8109 9.93957 16.7549 9.96427 16.6935C9.98898 16.632 10.0012 16.5662 10.0003 16.4999V15.9999H17.5003C17.5665 16.0009 17.6323 15.9886 17.6938 15.9639C17.7553 15.9392 17.8113 15.9025 17.8584 15.856C17.9056 15.8095 17.9431 15.7541 17.9687 15.6929C17.9942 15.6318 18.0074 15.5662 18.0074 15.4999C18.0074 15.4337 17.9942 15.3681 17.9687 15.3069C17.9431 15.2458 17.9056 15.1904 17.8584 15.1439C17.8113 15.0973 17.7553 15.0607 17.6938 15.0359C17.6323 15.0112 17.5665 14.999 17.5003 14.9999H10.0003V14.4999C10.0013 14.433 9.98891 14.3665 9.96377 14.3044C9.93862 14.2423 9.90125 14.1859 9.85388 14.1385C9.80652 14.0912 9.75012 14.0538 9.68804 14.0286C9.62595 14.0035 9.55945 13.9911 9.49247 13.9921ZM0.500285 14.9999C0.434029 14.999 0.368248 15.0112 0.306764 15.0359C0.24528 15.0607 0.189319 15.0973 0.142134 15.1439C0.0949496 15.1904 0.0574814 15.2458 0.0319076 15.3069C0.0063337 15.3681 -0.00683594 15.4337 -0.00683594 15.4999C-0.00683594 15.5662 0.0063337 15.6318 0.0319076 15.6929C0.0574814 15.7541 0.0949496 15.8095 0.142134 15.856C0.189319 15.9025 0.24528 15.9392 0.306764 15.9639C0.368248 15.9886 0.434029 16.0009 0.500285 15.9999H7.50029C7.56654 16.0009 7.63232 15.9886 7.69381 15.9639C7.75529 15.9392 7.81125 15.9025 7.85844 15.856C7.90562 15.8095 7.94309 15.7541 7.96866 15.6929C7.99424 15.6318 8.00741 15.5662 8.00741 15.4999C8.00741 15.4337 7.99424 15.3681 7.96866 15.3069C7.94309 15.2458 7.90562 15.1904 7.85844 15.1439C7.81125 15.0973 7.75529 15.0607 7.69381 15.0359C7.63232 15.0112 7.56654 14.999 7.50029 14.9999H0.500285Z" fill="currentColor"/>
</svg>
