<svg width="18" height="22" viewBox="0 0 18 22" fill="none" xmlns="http://www.w3.org/2000/svg">
<path d="M9 0C4.0386 0 0 4.0386 0 9C0 12.4814 2.22038 15.4139 4.35352 17.4844C6.48666 19.5548 8.61914 20.8086 8.61914 20.8086L9 21.0312L9.38086 20.8086C9.38086 20.8086 11.5133 19.5548 13.6465 17.4844C15.7796 15.4139 18 12.4814 18 9C18 4.0386 13.9614 0 9 0ZM9 1.5C13.1506 1.5 16.5 4.8494 16.5 9C16.5 11.8276 14.5954 14.4749 12.6035 16.4082C10.802 18.1568 9.32775 19.0193 9 19.2188C8.67225 19.0193 7.19798 18.1568 5.39648 16.4082C3.40462 14.4749 1.5 11.8276 1.5 9C1.5 4.8494 4.8494 1.5 9 1.5ZM9 5C7.72917 5 6.68107 5.50357 6.00195 6.26758C5.32283 7.03159 5 8.02083 5 9C5 9.97917 5.32283 10.9684 6.00195 11.7324C6.68107 12.4964 7.72917 13 9 13C10.2708 13 11.3189 12.4964 11.998 11.7324C12.6772 10.9684 13 9.97917 13 9C13 8.02083 12.6772 7.03159 11.998 6.26758C11.3189 5.50357 10.2708 5 9 5ZM9 6.5C9.89583 6.5 10.4727 6.80893 10.877 7.26367C11.2812 7.71841 11.5 8.35417 11.5 9C11.5 9.64583 11.2812 10.2816 10.877 10.7363C10.4727 11.1911 9.89583 11.5 9 11.5C8.10417 11.5 7.52726 11.1911 7.12305 10.7363C6.71883 10.2816 6.5 9.64583 6.5 9C6.5 8.35417 6.71883 7.71841 7.12305 7.26367C7.52726 6.80893 8.10417 6.5 9 6.5Z" fill="currentColor"/>
</svg>
