<svg width="18" height="20" viewBox="0 0 18 20" fill="none" xmlns="http://www.w3.org/2000/svg">
<path d="M4.73828 0.990235C4.53971 0.993341 4.35048 1.07507 4.21208 1.2175C4.07368 1.35992 3.99741 1.55142 4 1.75V2H0.75C0.551094 2.00002 0.36034 2.07904 0.219692 2.21969C0.079044 2.36034 1.98876e-05 2.55109 0 2.75V19.25C1.98876e-05 19.4489 0.079044 19.6397 0.219692 19.7803C0.36034 19.921 0.551094 20 0.75 20H17.25C17.4489 20 17.6397 19.921 17.7803 19.7803C17.921 19.6397 18 19.4489 18 19.25V2.75C18 2.55109 17.921 2.36034 17.7803 2.21969C17.6397 2.07904 17.4489 2.00002 17.25 2H14V1.75C14.0014 1.65062 13.983 1.55194 13.946 1.45972C13.9089 1.36749 13.8539 1.28355 13.7841 1.21277C13.7143 1.142 13.6312 1.08579 13.5395 1.04743C13.4478 1.00907 13.3494 0.989319 13.25 0.989319C13.1506 0.989319 13.0522 1.00907 12.9605 1.04743C12.8688 1.08579 12.7857 1.142 12.7159 1.21277C12.6461 1.28355 12.5911 1.36749 12.554 1.45972C12.517 1.55194 12.4986 1.65062 12.5 1.75V2H5.5V1.75C5.50131 1.6497 5.48248 1.55015 5.44464 1.45726C5.4068 1.36436 5.35071 1.27999 5.27969 1.20916C5.20867 1.13832 5.12416 1.08244 5.03117 1.04484C4.93817 1.00724 4.83858 0.988669 4.73828 0.990235ZM1.5 3.5H4V4.25C3.99859 4.34938 4.01696 4.44806 4.05402 4.54028C4.09108 4.63251 4.1461 4.71645 4.21588 4.78723C4.28566 4.858 4.36882 4.91421 4.46051 4.95257C4.5522 4.99093 4.65061 5.01068 4.75 5.01068C4.84939 5.01068 4.9478 4.99093 5.03949 4.95257C5.13118 4.91421 5.21434 4.858 5.28412 4.78723C5.3539 4.71645 5.40892 4.63251 5.44598 4.54028C5.48304 4.44806 5.50141 4.34938 5.5 4.25V3.5H12.5V4.25C12.4986 4.34938 12.517 4.44806 12.554 4.54028C12.5911 4.63251 12.6461 4.71645 12.7159 4.78723C12.7857 4.858 12.8688 4.91421 12.9605 4.95257C13.0522 4.99093 13.1506 5.01068 13.25 5.01068C13.3494 5.01068 13.4478 4.99093 13.5395 4.95257C13.6312 4.91421 13.7143 4.858 13.7841 4.78723C13.8539 4.71645 13.9089 4.63251 13.946 4.54028C13.983 4.44806 14.0014 4.34938 14 4.25V3.5H16.5V7H1.5V3.5ZM1.5 8.5H16.5V18.5H1.5V8.5Z" fill="black"/>
</svg>
