<svg width="19" height="19" viewBox="0 0 19 19" fill="none" xmlns="http://www.w3.org/2000/svg">
<path d="M9.5 0C4.25921 0 0 4.25922 0 9.5C0 14.7408 4.25921 19 9.5 19C14.7408 19 19 14.7408 19 9.5C19 4.25922 14.7408 0 9.5 0ZM9.5 1C14.2003 1 18 4.79966 18 9.5C18 14.2003 14.2003 18 9.5 18C4.79965 18 1 14.2003 1 9.5C1 4.79966 4.79965 1 9.5 1ZM8.99023 5.49609C8.86047 5.49971 8.7372 5.55364 8.64648 5.64648L5.18945 9.10352C5.12857 9.15007 5.07921 9.20999 5.04517 9.27865C5.01113 9.34731 4.99333 9.42288 4.99314 9.49952C4.99295 9.57616 5.01038 9.65181 5.04408 9.72064C5.07778 9.78947 5.12685 9.84963 5.1875 9.89648C5.18944 9.8978 5.1914 9.8991 5.19336 9.90039L8.64648 13.3535C8.69256 13.4015 8.74774 13.4398 8.80881 13.4662C8.86987 13.4926 8.93558 13.5065 9.0021 13.5072C9.06862 13.5079 9.1346 13.4953 9.19619 13.4701C9.25777 13.445 9.31372 13.4078 9.36076 13.3608C9.4078 13.3137 9.44498 13.2578 9.47012 13.1962C9.49527 13.1346 9.50787 13.0686 9.5072 13.0021C9.50652 12.9356 9.49258 12.8699 9.46619 12.8088C9.4398 12.7477 9.4015 12.6926 9.35352 12.6465L6.70703 10H14.5C14.5663 10.0009 14.632 9.9887 14.6935 9.96399C14.755 9.93928 14.811 9.9026 14.8582 9.85608C14.9053 9.80956 14.9428 9.75412 14.9684 9.69299C14.994 9.63186 15.0071 9.56626 15.0071 9.5C15.0071 9.43374 14.994 9.36814 14.9684 9.30701C14.9428 9.24588 14.9053 9.19044 14.8582 9.14392C14.811 9.0974 14.755 9.06072 14.6935 9.03601C14.632 9.0113 14.5663 8.99906 14.5 9H6.70703L9.35352 6.35352C9.42541 6.28322 9.47445 6.19289 9.49423 6.0943C9.514 5.99572 9.5036 5.89346 9.46437 5.80088C9.42515 5.70829 9.35892 5.62969 9.27434 5.57532C9.18975 5.52095 9.09075 5.49334 8.99023 5.49609Z" fill="black"/>
</svg>
