<svg width="19" height="19" viewBox="0 0 19 19" fill="none" xmlns="http://www.w3.org/2000/svg">
<path d="M9.5 0C4.262 0 0 4.262 0 9.5C0 14.738 4.262 19 9.5 19C14.738 19 19 14.738 19 9.5C19 4.262 14.738 0 9.5 0ZM14.5 10H6.707L9.353 12.646C9.548 12.841 9.548 13.158 9.353 13.353C9.256 13.451 9.128 13.5 9 13.5C8.872 13.5 8.744 13.451 8.646 13.354L5.147 9.855C5.101 9.809 5.064 9.753 5.038 9.692C4.987 9.57 4.987 9.432 5.038 9.31C5.063 9.248 5.1 9.193 5.147 9.147L8.646 5.648C8.841 5.453 9.158 5.453 9.353 5.648C9.548 5.843 9.548 6.16 9.353 6.355L6.707 9H14.5C14.776 9 15 9.224 15 9.5C15 9.776 14.776 10 14.5 10Z" fill="black"/>
</svg>
