<svg width="23" height="18" viewBox="0 0 23 18" fill="none" xmlns="http://www.w3.org/2000/svg">
<path d="M14.2528 2.18022e-06C14.1537 -0.000236619 14.0556 0.0191435 13.9641 0.057024C13.8726 0.0949045 13.7895 0.150535 13.7196 0.220705L5.0106 8.97071C4.87 9.11136 4.79102 9.3021 4.79102 9.50098C4.79102 9.69986 4.87 9.89059 5.0106 10.0313L12.0106 17.0313C12.0804 17.101 12.1633 17.1564 12.2545 17.194C12.3458 17.2317 12.4435 17.251 12.5423 17.2508C12.641 17.2507 12.7387 17.231 12.8298 17.193C12.9209 17.155 13.0035 17.0993 13.0731 17.0293L21.7821 8.2793C21.9217 8.13922 22.0003 7.9497 22.0008 7.75196L22.0243 0.769533C22.0248 0.570627 21.9462 0.379667 21.806 0.238652C21.6657 0.0976379 21.4751 0.0181175 21.2762 0.0175803L14.2528 2.18022e-06ZM14.5614 1.5L20.5223 1.51563L20.5028 7.43946L12.5419 15.4375L6.6024 9.49805L14.5614 1.5ZM8.26646 1.98242C8.07196 1.98758 7.88707 2.06812 7.75084 2.20703L0.971539 8.96875C0.901499 9.03831 0.845877 9.121 0.807861 9.21209C0.769845 9.30319 0.750183 9.40089 0.750001 9.4996C0.74982 9.5983 0.769123 9.69608 0.806804 9.78731C0.844485 9.87854 0.899802 9.96144 0.969585 10.0313L8.70396 17.7637C8.77307 17.8357 8.85585 17.8931 8.94744 17.9327C9.03904 17.9723 9.13761 17.9932 9.23739 17.9942C9.33717 17.9952 9.43615 17.9763 9.52853 17.9386C9.62091 17.9009 9.70484 17.8451 9.7754 17.7746C9.84596 17.704 9.90173 17.6201 9.93945 17.5277C9.97716 17.4353 9.99607 17.3363 9.99505 17.2366C9.99404 17.1368 9.97313 17.0382 9.93354 16.9466C9.89395 16.855 9.83649 16.7722 9.76451 16.7031L2.56334 9.5L8.80943 3.26953C8.91749 3.16427 8.9913 3.02887 9.02122 2.88101C9.05114 2.73314 9.03578 2.5797 8.97714 2.4407C8.91851 2.30171 8.81932 2.18362 8.69254 2.10187C8.56576 2.02011 8.41727 1.97849 8.26646 1.98242ZM17.0008 4C16.7356 4 16.4813 4.10536 16.2937 4.2929C16.1062 4.48043 16.0008 4.73479 16.0008 5C16.0008 5.26522 16.1062 5.51957 16.2937 5.70711C16.4813 5.89465 16.7356 6 17.0008 6C17.2661 6 17.5204 5.89465 17.7079 5.70711C17.8955 5.51957 18.0008 5.26522 18.0008 5C18.0008 4.73479 17.8955 4.48043 17.7079 4.2929C17.5204 4.10536 17.2661 4 17.0008 4Z" fill="currentColor"/>
</svg>
