<svg width="12" height="12" viewBox="0 0 12 12" fill="none" xmlns="http://www.w3.org/2000/svg">
<path d="M11.9161 7.55469C12.0003 7.6712 12.024 7.81877 11.974 7.96117C11.1023 10.3767 8.76654 12 6.16212 12C2.76505 12 0 9.28155 0 5.93916C0 3.08608 2.06194 0.59288 4.90073 0.010356C4.93233 0.00258899 4.96393 0 4.99553 0C5.1667 0 5.31944 0.0957928 5.39844 0.248544C5.47744 0.406472 5.46164 0.59288 5.3484 0.737864C4.69269 1.54563 4.36352 2.42071 4.36352 3.97411C4.47939 5.51974 5.32734 6.87638 6.73356 7.59871C7.37084 7.91715 8.21352 8.0699 8.94034 8.0699C9.76722 8.0699 10.5836 7.84725 11.2999 7.42783C11.371 7.38382 11.4526 7.36311 11.5369 7.36311C11.687 7.36311 11.8292 7.43301 11.9161 7.55469ZM6.16212 11.1405C8.01602 11.1405 9.71982 10.1825 10.6731 8.65243C10.1175 8.83625 9.53812 8.92945 8.94034 8.92945C5.92511 8.92945 3.4708 6.51651 3.4708 3.5521C3.4708 2.72363 3.66304 1.91845 4.02908 1.18576C2.14094 2.00647 0.874283 3.87314 0.874283 5.93916C0.874283 8.80777 3.24696 11.1405 6.16212 11.1405Z" fill="currentColor"/>
</svg>
