<svg width="20" height="16" viewBox="0 0 20 16" fill="none" xmlns="http://www.w3.org/2000/svg">
<path d="M11.9931 -0.00781011C11.8436 -0.00816967 11.6973 0.0361835 11.5732 0.119553C11.449 0.202923 11.3526 0.321502 11.2963 0.460064C11.2401 0.598626 11.2265 0.750844 11.2574 0.89717C11.2883 1.0435 11.3622 1.17725 11.4697 1.28125L17.4384 7.25H0.750916C0.651532 7.2486 0.55286 7.26696 0.460634 7.30402C0.368408 7.34108 0.284467 7.3961 0.21369 7.46588C0.142913 7.53567 0.0867104 7.61882 0.0483496 7.71051C0.00998883 7.80221 -0.00976563 7.90061 -0.00976562 8C-0.00976563 8.0994 0.00998883 8.1978 0.0483496 8.28949C0.0867104 8.38119 0.142913 8.46434 0.21369 8.53412C0.284467 8.60391 0.368408 8.65893 0.460634 8.69599C0.55286 8.73305 0.651532 8.75141 0.750916 8.75H17.4384L11.4697 14.7188C11.3999 14.7885 11.3445 14.8713 11.3068 14.9625C11.269 15.0536 11.2496 15.1514 11.2496 15.25C11.2495 15.3487 11.269 15.4464 11.3067 15.5376C11.3445 15.6287 11.3998 15.7115 11.4696 15.7813C11.5394 15.8511 11.6222 15.9064 11.7134 15.9442C11.8045 15.9819 11.9022 16.0014 12.0009 16.0014C12.0996 16.0014 12.1973 15.9819 12.2884 15.9441C12.3796 15.9064 12.4624 15.851 12.5322 15.7813L19.7822 8.53125C19.8521 8.46157 19.9075 8.37877 19.9454 8.28761C19.9832 8.19645 20.0027 8.09871 20.0027 8C20.0027 7.9013 19.9832 7.80356 19.9454 7.71239C19.9075 7.62123 19.8521 7.53844 19.7822 7.46875L12.5322 0.218752C12.4621 0.146818 12.3782 0.089697 12.2856 0.0507784C12.193 0.0118598 12.0936 -0.00806372 11.9931 -0.00781011Z" fill="black"/>
</svg>
