<svg width="19" height="17" viewBox="0 0 19 17" fill="none" xmlns="http://www.w3.org/2000/svg">
<path d="M0.500285 5.00046e-05C0.434029 -0.000887019 0.368248 0.0113534 0.306764 0.0360603C0.24528 0.0607671 0.189319 0.0974477 0.142134 0.14397C0.0949496 0.190492 0.0574814 0.245928 0.0319076 0.307057C0.0063337 0.368185 -0.00683594 0.433787 -0.00683594 0.50005C-0.00683594 0.566313 0.0063337 0.631915 0.0319076 0.693043C0.0574814 0.754172 0.0949496 0.809608 0.142134 0.85613C0.189319 0.902652 0.24528 0.939333 0.306764 0.96404C0.368248 0.988747 0.434029 1.00099 0.500285 1.00005H13.5003C13.5665 1.00099 13.6323 0.988747 13.6938 0.96404C13.7553 0.939333 13.8113 0.902652 13.8584 0.85613C13.9056 0.809608 13.9431 0.754172 13.9687 0.693043C13.9942 0.631915 14.0074 0.566313 14.0074 0.50005C14.0074 0.433787 13.9942 0.368185 13.9687 0.307057C13.9431 0.245928 13.9056 0.190492 13.8584 0.14397C13.8113 0.0974477 13.7553 0.0607671 13.6938 0.0360603C13.6323 0.0113534 13.5665 -0.000887019 13.5003 5.00046e-05H0.500285ZM15.4925 4.99224C15.4268 4.99326 15.362 5.00721 15.3017 5.03328C15.2415 5.05936 15.1869 5.09705 15.1412 5.14421C15.0955 5.19136 15.0595 5.24706 15.0354 5.30811C15.0112 5.36917 14.9993 5.43439 15.0003 5.50005V15.293L12.8538 13.1465C12.8077 13.0986 12.7525 13.0602 12.6915 13.0339C12.6304 13.0075 12.5647 12.9935 12.4982 12.9929C12.4317 12.9922 12.3657 13.0048 12.3041 13.0299C12.2425 13.0551 12.1866 13.0923 12.1395 13.1393C12.0925 13.1863 12.0553 13.2423 12.0302 13.3039C12.005 13.3654 11.9924 13.4314 11.9931 13.4979C11.9938 13.5645 12.0077 13.6302 12.0341 13.6912C12.0605 13.7523 12.0988 13.8075 12.1468 13.8536L15.1468 16.8536C15.2405 16.9473 15.3677 17 15.5003 17C15.6329 17 15.76 16.9473 15.8538 16.8536L18.8538 13.8536C18.9018 13.8075 18.9401 13.7523 18.9665 13.6912C18.9929 13.6302 19.0068 13.5645 19.0075 13.4979C19.0082 13.4314 18.9956 13.3654 18.9704 13.3039C18.9453 13.2423 18.9081 13.1863 18.861 13.1393C18.814 13.0923 18.7581 13.0551 18.6965 13.0299C18.6349 13.0048 18.5689 12.9922 18.5024 12.9929C18.4359 12.9935 18.3702 13.0075 18.3091 13.0339C18.248 13.0602 18.1928 13.0986 18.1468 13.1465L16.0003 15.293V5.50005C16.0013 5.43307 15.9889 5.36657 15.9638 5.30449C15.9386 5.2424 15.9012 5.186 15.8539 5.13864C15.8065 5.09127 15.7501 5.05391 15.688 5.02876C15.626 5.00361 15.5594 4.99119 15.4925 4.99224ZM0.500285 5.00005C0.434029 4.99911 0.368248 5.01135 0.306764 5.03606C0.24528 5.06077 0.189319 5.09745 0.142134 5.14397C0.0949496 5.19049 0.0574814 5.24593 0.0319076 5.30706C0.0063337 5.36819 -0.00683594 5.43379 -0.00683594 5.50005C-0.00683594 5.56631 0.0063337 5.63191 0.0319076 5.69304C0.0574814 5.75417 0.0949496 5.80961 0.142134 5.85613C0.189319 5.90265 0.24528 5.93933 0.306764 5.96404C0.368248 5.98875 0.434029 6.00099 0.500285 6.00005H10.5003C10.5665 6.00099 10.6323 5.98875 10.6938 5.96404C10.7553 5.93933 10.8113 5.90265 10.8584 5.85613C10.9056 5.80961 10.9431 5.75417 10.9687 5.69304C10.9942 5.63191 11.0074 5.56631 11.0074 5.50005C11.0074 5.43379 10.9942 5.36819 10.9687 5.30706C10.9431 5.24593 10.9056 5.19049 10.8584 5.14397C10.8113 5.09745 10.7553 5.06077 10.6938 5.03606C10.6323 5.01135 10.5665 4.99911 10.5003 5.00005H0.500285ZM0.500285 10C0.434029 9.99911 0.368248 10.0114 0.306764 10.0361C0.24528 10.0608 0.189319 10.0974 0.142134 10.144C0.0949496 10.1905 0.0574814 10.2459 0.0319076 10.3071C0.0063337 10.3682 -0.00683594 10.4338 -0.00683594 10.5C-0.00683594 10.5663 0.0063337 10.6319 0.0319076 10.693C0.0574814 10.7542 0.0949496 10.8096 0.142134 10.8561C0.189319 10.9027 0.24528 10.9393 0.306764 10.964C0.368248 10.9887 0.434029 11.001 0.500285 11H7.50029C7.56654 11.001 7.63232 10.9887 7.69381 10.964C7.75529 10.9393 7.81125 10.9027 7.85844 10.8561C7.90562 10.8096 7.94309 10.7542 7.96866 10.693C7.99424 10.6319 8.00741 10.5663 8.00741 10.5C8.00741 10.4338 7.99424 10.3682 7.96866 10.3071C7.94309 10.2459 7.90562 10.1905 7.85844 10.144C7.81125 10.0974 7.75529 10.0608 7.69381 10.0361C7.63232 10.0114 7.56654 9.99911 7.50029 10H0.500285ZM0.500285 15C0.434029 14.9991 0.368248 15.0114 0.306764 15.0361C0.24528 15.0608 0.189319 15.0974 0.142134 15.144C0.0949496 15.1905 0.0574814 15.2459 0.0319076 15.3071C0.0063337 15.3682 -0.00683594 15.4338 -0.00683594 15.5C-0.00683594 15.5663 0.0063337 15.6319 0.0319076 15.693C0.0574814 15.7542 0.0949496 15.8096 0.142134 15.8561C0.189319 15.9027 0.24528 15.9393 0.306764 15.964C0.368248 15.9887 0.434029 16.001 0.500285 16H4.50029C4.56654 16.001 4.63232 15.9887 4.69381 15.964C4.75529 15.9393 4.81125 15.9027 4.85844 15.8561C4.90562 15.8096 4.94309 15.7542 4.96866 15.693C4.99424 15.6319 5.00741 15.5663 5.00741 15.5C5.00741 15.4338 4.99424 15.3682 4.96866 15.3071C4.94309 15.2459 4.90562 15.1905 4.85844 15.144C4.81125 15.0974 4.75529 15.0608 4.69381 15.0361C4.63232 15.0114 4.56654 14.9991 4.50029 15H0.500285Z" fill="currentColor"/>
</svg>
