<svg width="20" height="16" viewBox="0 0 20 16" fill="none" xmlns="http://www.w3.org/2000/svg">
<path d="M7.98423 -0.00779941C7.78945 -0.00212275 7.60453 0.0791322 7.46861 0.218763L0.218607 7.46876C0.148696 7.53845 0.0932262 7.62124 0.0553778 7.7124C0.0175295 7.80357 -0.00195313 7.90131 -0.00195312 8.00001C-0.00195312 8.09872 0.0175295 8.19646 0.0553778 8.28762C0.0932262 8.37878 0.148696 8.46158 0.218607 8.53126L7.46861 15.7813C7.53837 15.851 7.62119 15.9064 7.71235 15.9442C7.8035 15.9819 7.90121 16.0014 7.99988 16.0014C8.09854 16.0014 8.19625 15.982 8.28741 15.9442C8.37857 15.9064 8.4614 15.8511 8.53117 15.7813C8.60094 15.7116 8.65628 15.6287 8.69404 15.5376C8.73179 15.4464 8.75122 15.3487 8.75122 15.25C8.75121 15.1514 8.73177 15.0537 8.69401 14.9625C8.65624 14.8713 8.60088 14.7885 8.53111 14.7188L2.56236 8.75001H19.2499C19.3492 8.75142 19.4479 8.73306 19.5401 8.696C19.6324 8.65894 19.7163 8.60392 19.7871 8.53413C19.8579 8.46435 19.9141 8.3812 19.9524 8.2895C19.9908 8.19781 20.0105 8.09941 20.0105 8.00001C20.0105 7.90062 19.9908 7.80222 19.9524 7.71052C19.9141 7.61883 19.8579 7.53568 19.7871 7.46589C19.7163 7.39611 19.6324 7.34109 19.5401 7.30403C19.4479 7.26697 19.3492 7.24861 19.2499 7.25001H2.56236L8.53111 1.28126C8.64016 1.1759 8.71472 1.03995 8.74495 0.891356C8.77517 0.74276 8.75965 0.588491 8.70043 0.448894C8.64121 0.309297 8.54106 0.190929 8.41321 0.109399C8.28535 0.0278686 8.13578 -0.0129937 7.98423 -0.00779941Z" fill="black"/>
</svg>
