<svg width="48" height="48" viewBox="0 0 48 48" fill="none" xmlns="http://www.w3.org/2000/svg">
<circle cx="24" cy="24" r="23.5" stroke="black"/>
<path d="M19.5663 15.3441C19.3942 15.5163 19.3437 15.7757 19.4388 15.9999C19.5338 16.2241 19.7554 16.3683 19.9989 16.3643L30.3892 16.3643L15.3501 31.4033C15.1956 31.5535 15.1339 31.7754 15.1887 31.9838C15.2435 32.1923 15.4063 32.3551 15.6148 32.4099C15.8233 32.4648 16.0451 32.4031 16.1954 32.2485L31.2344 17.2095V27.5998C31.23 27.8162 31.3429 28.018 31.5296 28.1275C31.7163 28.237 31.9476 28.237 32.1343 28.1275C32.321 28.018 32.434 27.8162 32.4296 27.5998L32.4296 15.7667C32.4295 15.4366 32.162 15.1691 31.832 15.1691L19.9989 15.1691C19.8369 15.1664 19.6809 15.2296 19.5663 15.3441Z" fill="black"/>
</svg>
