<svg width="20" height="20" viewBox="0 0 20 20" fill="none" xmlns="http://www.w3.org/2000/svg">
<path d="M10 0C4.486 0 0 4.486 0 10C0 15.514 4.486 20 10 20C15.514 20 20 15.514 20 10C20 4.486 15.514 0 10 0ZM11.088 15.096C10.166 15.096 9.3 14.618 9.008 14.054C9.008 14.054 8.55 15.786 8.439 16.214C8.232 17 7.684 17.992 7.311 18.596L6.692 18.374C6.611 17.654 6.536 16.551 6.722 15.765C6.888 15.06 7.79 11.253 7.79 11.253C7.79 11.253 7.518 10.709 7.518 9.903C7.518 8.639 8.248 7.697 9.16 7.697C9.936 7.697 10.308 8.276 10.308 8.976C10.308 9.757 9.814 10.92 9.558 11.997C9.342 12.903 10.011 13.639 10.903 13.639C12.514 13.639 13.758 11.937 13.758 9.479C13.758 7.309 12.192 5.788 9.961 5.788C7.378 5.788 5.862 7.727 5.862 9.731C5.862 10.512 6.164 11.347 6.537 11.801C6.613 11.892 6.623 11.972 6.602 12.063C6.532 12.35 6.38 12.964 6.345 13.095C6.31 13.261 6.214 13.296 6.043 13.216C4.91 12.687 4.2 11.025 4.2 9.696C4.2 6.831 6.28 4.197 10.203 4.197C13.355 4.197 15.803 6.443 15.803 9.444C15.801 12.578 13.827 15.096 11.088 15.096Z" fill="black"/>
</svg>
