<svg width="24" height="24" viewBox="0 0 24 24" fill="none" xmlns="http://www.w3.org/2000/svg">
<path d="M9.47009 0C4.24007 0 0 4.24007 0 9.47009C0 14.7001 4.24007 18.9402 9.47009 18.9402C11.8576 18.9402 14.0339 18.0504 15.6996 16.5924L22.9132 23.8059C22.9713 23.8665 23.041 23.9149 23.1181 23.9482C23.1952 23.9815 23.2782 23.9991 23.3622 24C23.4462 24.0008 23.5295 23.9849 23.6073 23.9532C23.685 23.9214 23.7557 23.8745 23.8151 23.8151C23.8745 23.7557 23.9214 23.685 23.9532 23.6073C23.9849 23.5295 24.0008 23.4462 24 23.3622C23.9991 23.2782 23.9815 23.1952 23.9482 23.1181C23.9149 23.041 23.8665 22.9713 23.8059 22.9132L16.5924 15.6996C18.0504 14.0339 18.9402 11.8576 18.9402 9.47009C18.9402 4.24007 14.7001 0 9.47009 0ZM9.47009 5.05071C9.81858 5.05071 10.1014 5.33355 10.1014 5.68205V8.83875H13.2581C13.6066 8.83875 13.8895 9.12159 13.8895 9.47009C13.8895 9.81858 13.6066 10.1014 13.2581 10.1014H10.1014V13.2581C10.1014 13.6066 9.81858 13.8895 9.47009 13.8895C9.12159 13.8895 8.83875 13.6066 8.83875 13.2581V10.1014H5.68205C5.33355 10.1014 5.05071 9.81858 5.05071 9.47009C5.05071 9.12159 5.33355 8.83875 5.68205 8.83875H8.83875V5.68205C8.83875 5.33355 9.12159 5.05071 9.47009 5.05071Z" fill="black"/>
</svg>
