<svg width="12" height="12" viewBox="0 0 12 12" fill="none" xmlns="http://www.w3.org/2000/svg">
<path d="M6 3C7.65692 3 9 4.34308 9 6C9 7.65692 7.65692 9 6 9C4.34308 9 3 7.65692 3 6C3 4.34308 4.34308 3 6 3ZM6 8.07692C7.14715 8.07692 8.07692 7.14715 8.07692 6C8.07692 4.85285 7.14715 3.92308 6 3.92308C4.85285 3.92308 3.92308 4.85285 3.92308 6C3.92308 7.14715 4.85285 8.07692 6 8.07692ZM6.46154 0.461538C6.46154 0.546 6.46154 1.76169 6.46154 1.84615C6.46154 2.10115 6.255 2.30769 6 2.30769C5.745 2.30769 5.53846 2.10115 5.53846 1.84615C5.53846 1.76169 5.53846 0.546 5.53846 0.461538C5.53846 0.206538 5.745 0 6 0C6.255 0 6.46154 0.206538 6.46154 0.461538ZM10.2427 2.41015C10.1829 2.46992 9.32331 3.32954 9.26354 3.38931C9.08331 3.56954 8.79115 3.56954 8.61092 3.38931C8.43069 3.20908 8.43069 2.91692 8.61092 2.73669C8.67069 2.67692 9.53031 1.81731 9.59008 1.75754C9.77031 1.57731 10.0625 1.57731 10.2427 1.75754C10.4229 1.93777 10.4229 2.22992 10.2427 2.41015ZM11.5385 6.46154C11.454 6.46154 10.2383 6.46154 10.1538 6.46154C9.89885 6.46154 9.69231 6.255 9.69231 6C9.69231 5.745 9.89885 5.53846 10.1538 5.53846C10.2383 5.53846 11.454 5.53846 11.5385 5.53846C11.7935 5.53846 12 5.745 12 6C12 6.255 11.7935 6.46154 11.5385 6.46154ZM9.58985 10.2427C9.53008 10.1829 8.67046 9.32331 8.61069 9.26354C8.43046 9.08331 8.43046 8.79115 8.61069 8.61092C8.79092 8.43069 9.08308 8.43069 9.26331 8.61092C9.32308 8.67069 10.1827 9.53031 10.2425 9.59008C10.4227 9.77031 10.4227 10.0625 10.2425 10.2427C10.0622 10.4229 9.77008 10.4229 9.58985 10.2427ZM5.53846 11.5385C5.53846 11.454 5.53846 10.2383 5.53846 10.1538C5.53846 9.89885 5.745 9.69231 6 9.69231C6.255 9.69231 6.46154 9.89885 6.46154 10.1538C6.46154 10.2383 6.46154 11.454 6.46154 11.5385C6.46154 11.7935 6.255 12 6 12C5.745 12 5.53846 11.7935 5.53846 11.5385ZM1.75731 9.58985C1.81708 9.53008 2.67669 8.67046 2.73646 8.61069C2.91669 8.43046 3.20885 8.43046 3.38908 8.61069C3.56931 8.79092 3.56931 9.08308 3.38908 9.26331C3.32931 9.32308 2.46969 10.1827 2.40992 10.2425C2.22969 10.4227 1.93754 10.4227 1.75731 10.2425C1.57708 10.0622 1.57708 9.77008 1.75731 9.58985ZM0.461538 5.53846C0.546 5.53846 1.76169 5.53846 1.84615 5.53846C2.10115 5.53846 2.30769 5.745 2.30769 6C2.30769 6.255 2.10115 6.46154 1.84615 6.46154C1.76169 6.46154 0.546 6.46154 0.461538 6.46154C0.206538 6.46154 0 6.255 0 6C0 5.745 0.206538 5.53846 0.461538 5.53846ZM2.41015 1.75731C2.46992 1.81708 3.32954 2.67669 3.38931 2.73646C3.56954 2.91669 3.56954 3.20885 3.38931 3.38908C3.20908 3.56931 2.91692 3.56931 2.73669 3.38908C2.67692 3.32931 1.81731 2.46969 1.75754 2.40992C1.57731 2.22969 1.57731 1.93754 1.75754 1.75731C1.93777 1.57708 2.22992 1.57708 2.41015 1.75731Z" fill="#1A1A1A"/>
</svg>
