<svg width="20" height="20" viewBox="0 0 20 20" fill="none" xmlns="http://www.w3.org/2000/svg">
<path d="M10 0C4.48307 0 0 4.48308 0 10C0 15.5169 4.48307 20 10 20C15.5169 20 20 15.5169 20 10C20 4.48308 15.5169 0 10 0ZM10 1C14.9765 1 19 5.02351 19 10C19 14.9765 14.9765 19 10 19C5.02351 19 1 14.9765 1 10C1 5.02351 5.02351 1 10 1ZM8.5 6C8.43374 5.99906 8.36796 6.0113 8.30648 6.03601C8.24499 6.06072 8.18903 6.0974 8.14185 6.14392C8.09466 6.19044 8.0572 6.24588 8.03162 6.30701C8.00605 6.36814 7.99288 6.43374 7.99288 6.5C7.99288 6.56626 8.00605 6.63186 8.03162 6.69299C8.0572 6.75412 8.09466 6.80956 8.14185 6.85608C8.18903 6.9026 8.24499 6.93928 8.30648 6.96399C8.36796 6.9887 8.43374 7.00094 8.5 7H12.293L6.14648 13.1465C6.0985 13.1926 6.06019 13.2477 6.0338 13.3088C6.00741 13.3699 5.99347 13.4356 5.99279 13.5021C5.99212 13.5686 6.00472 13.6346 6.02987 13.6962C6.05501 13.7578 6.09219 13.8137 6.13923 13.8608C6.18627 13.9078 6.24222 13.945 6.30381 13.9701C6.36539 13.9953 6.43138 14.0079 6.4979 14.0072C6.56442 14.0065 6.63013 13.9926 6.69119 13.9662C6.75226 13.9398 6.80744 13.9015 6.85352 13.8535L13 7.70703V11.5C12.9991 11.5663 13.0113 11.632 13.036 11.6935C13.0607 11.755 13.0974 11.811 13.1439 11.8582C13.1904 11.9053 13.2459 11.9428 13.307 11.9684C13.3681 11.994 13.4337 12.0071 13.5 12.0071C13.5663 12.0071 13.6319 11.994 13.693 11.9684C13.7541 11.9428 13.8096 11.9053 13.8561 11.8582C13.9026 11.811 13.9393 11.755 13.964 11.6935C13.9887 11.632 14.0009 11.5663 14 11.5V6.5C14 6.3674 13.9473 6.24023 13.8535 6.14646C13.7598 6.0527 13.6326 6.00001 13.5 6H8.5Z" fill="white"/>
</svg>
