<svg width="21" height="20" viewBox="0 0 21 20" fill="none" xmlns="http://www.w3.org/2000/svg">
<path d="M7.34795 0C7.14635 0.00105274 6.96237 0.119075 6.87627 0.302251L1.3084 12.0942C2.4193 11.2941 4.13044 10.5295 6.79219 10.5295C9.44344 10.5295 11.4964 11.8262 13.4777 13.0811C15.4108 14.3044 17.4063 15.5697 20.0628 15.7603C20.151 15.7666 20.3603 15.7745 20.6165 15.7829L15.1081 4.50704C15.0231 4.33334 14.8511 4.22144 14.659 4.21302C14.4437 4.2067 14.285 4.30064 14.1853 4.46592L11.7899 8.46715L7.82168 0.296083C7.73453 0.113959 7.5526 0 7.35205 0H7.34795ZM7.3582 1.7436L10.0345 7.25404L8.69326 6.40074C8.48956 6.2702 8.21751 6.30006 8.04111 6.47271L7.35205 7.16151L6.66094 6.47271C6.48454 6.29795 6.20944 6.27115 6.00469 6.40485L4.78652 7.19441L7.3582 1.7436ZM6.79219 11.5801C2.87989 11.5801 1.28538 13.4103 0.60498 14.1914L0.500391 14.3086C0.415341 14.4013 0.257365 14.571 0.0389648 14.87C0.0211148 14.9468 0 15.0233 0 15.1043V18.9473C0 19.5284 0.4704 20 1.05 20H19.95C20.5296 20 21 19.5284 21 18.9473V16.8459C20.517 16.8343 20.1339 16.8194 19.989 16.8089C17.0689 16.6004 14.9591 15.2642 12.9179 13.9714C10.9754 12.7429 9.13999 11.5801 6.79219 11.5801Z" fill="currentColor"/>
</svg>
