<svg width="20" height="22" viewBox="0 0 20 22" fill="none" xmlns="http://www.w3.org/2000/svg">
<path d="M10 0C7.90771 0 6.33458 1.72539 5.90118 3.88792C3.81594 3.18282 1.53869 3.68404 0.492635 5.49946C-0.553593 7.31519 0.152647 9.54123 1.80451 10.9989C0.152133 12.4559 -0.553684 14.6825 0.492635 16.4984C1.53874 18.3139 3.81593 18.8165 5.90118 18.1121C6.33458 20.2746 7.90771 22 10 22C12.0923 22 13.6654 20.2746 14.0988 18.1121C16.1841 18.8165 18.4613 18.3139 19.5074 16.4984C20.5537 14.6825 19.8479 12.4559 18.1955 10.9989C19.8474 9.54123 20.5536 7.31519 19.5074 5.49946C18.4613 3.68404 16.1841 3.18282 14.0988 3.88792C13.6654 1.72539 12.0923 0 10 0ZM10 8.76773C11.2136 8.76773 12.1986 9.75587 12.1986 10.971C12.1986 12.1871 11.2136 13.1742 10 13.1742C8.78636 13.1742 7.80137 12.1871 7.80137 10.971C7.80137 9.75587 8.78636 8.76773 10 8.76773Z" fill="currentColor"/>
</svg>
