<svg width="20" height="20" viewBox="0 0 20 20" fill="none" xmlns="http://www.w3.org/2000/svg">
<path d="M20 9.98724C20 9.72758 19.8621 9.48835 19.6387 9.35706L16.6909 7.63478L17.2776 3.52504C17.3096 3.29845 17.2339 3.06894 17.0717 2.90653C16.9095 2.74413 16.6861 2.6673 16.453 2.70036L12.3495 3.28775L10.6294 0.336239C10.3691 -0.11208 9.6319 -0.11208 9.3716 0.336239L7.65054 3.28775L3.54701 2.70036C3.31585 2.66827 3.09052 2.7451 2.92929 2.9075C2.76709 3.06991 2.69134 3.29942 2.72339 3.52601L3.31002 7.63575L0.362277 9.35803C0.137918 9.48835 0 9.72758 0 9.98724C0 10.2469 0.137918 10.4861 0.361305 10.6174L3.30905 12.3397L2.72242 16.4494C2.69037 16.676 2.76612 16.9055 2.92832 17.0679C3.08955 17.2303 3.31488 17.3043 3.54701 17.2741L7.65054 16.6867L9.37063 19.6382C9.50078 19.8619 9.74068 20 9.99903 20C10.2574 20 10.4983 19.8619 10.6274 19.6382L12.3475 16.6867L16.451 17.2741C16.6832 17.3043 16.9075 17.2294 17.0697 17.0679C17.2319 16.9055 17.3077 16.676 17.2756 16.4494L16.689 12.3397L19.6368 10.6174C19.8621 10.4861 20 10.2469 20 9.98724ZM10.0058 14.8497C7.3446 14.8497 5.18454 12.6713 5.18454 9.98724C5.18454 7.30316 7.3446 5.12478 10.0058 5.12478C12.6671 5.12478 14.8281 7.30316 14.8281 9.98724C14.8281 12.6713 12.6671 14.8497 10.0058 14.8497Z" fill="currentColor"/>
</svg>
