<svg width="24" height="24" viewBox="0 0 24 24" fill="none" xmlns="http://www.w3.org/2000/svg">
<path d="M1 12L12 11.5L23 12V19.5H1V12Z" fill="#1A237E"/>
<path d="M1 4.5H23V12H1V4.5Z" fill="#B71C1C"/>
<path d="M1 9.3835L12 12L1 6.258V9.3835Z" fill="#FFD600"/>
<path d="M3.52148 4.5L12.0005 12L6.69198 4.5H3.52148Z" fill="#FFD600"/>
<path d="M9.13477 4.5L11.9993 12L10.9673 4.5H9.13477Z" fill="#FFD600"/>
<path d="M23 9.3835L12 12L23 6.258V9.3835Z" fill="#FFD600"/>
<path d="M20.479 4.5L12 12L17.3085 4.5H20.479Z" fill="#FFD600"/>
<path d="M14.8645 4.5L12 12L13.032 4.5H14.8645Z" fill="#FFD600"/>
<path d="M13.4736 12.835L15.8576 11.1025H12.9106L12.0001 8.3L11.0896 11.1025H8.14258L10.5266 12.835L9.61608 15.6375L12.0001 13.9055L14.3841 15.6375L13.4736 12.835Z" fill="#EF6C00"/>
</svg>
