<svg width="24" height="24" viewBox="0 0 24 24" fill="none" xmlns="http://www.w3.org/2000/svg">
<path d="M1 4.5H23V9.5L12 10L1 9.5V4.5Z" fill="#1A237E"/>
<path d="M1 14.5L12 14L23 14.5V19.5H1V14.5Z" fill="#1A237E"/>
<path d="M23 9.5H1V14.5H23V9.5Z" fill="#ECEFF1"/>
<path d="M14.9019 10.3385C14.2324 8.394 12.4194 7 10.2894 7C7.58939 7 5.40039 9.239 5.40039 12C5.40039 14.761 7.58939 17 10.2894 17C12.4199 17 14.2324 15.606 14.9019 13.6615L10.2894 12L14.9019 10.3385Z" fill="#B71C1C"/>
<path d="M10.2882 14.5C11.6383 14.5 12.7327 13.3807 12.7327 12C12.7327 10.6193 11.6383 9.5 10.2882 9.5C8.93819 9.5 7.84375 10.6193 7.84375 12C7.84375 13.3807 8.93819 14.5 10.2882 14.5Z" fill="#FFD600"/>
</svg>
